HIERARCHY
ROOT hip
{
  OFFSET 0 0 0
  CHANNELS 6 Xposition Yposition Zposition Zrotation Yrotation Xrotation
  JOINT abdomen
  {
    OFFSET 0 20.6881 -0.73152
    CHANNELS 3 Zrotation Xrotation Yrotation
    JOINT chest
    {
      OFFSET 0 11.7043 -0.48768
      CHANNELS 3 Zrotation Xrotation Yrotation
      JOINT neck
      {
        OFFSET 0 22.1894 -2.19456
        CHANNELS 3 Zrotation Xrotation Yrotation
        JOINT head
        {
          OFFSET -0.24384 7.07133 1.2192
          CHANNELS 3 Zrotation Xrotation Yrotation
          JOINT leftEye
          {
            OFFSET 4.14528 8.04674 8.04672
            CHANNELS 3 Zrotation Xrotation Yrotation
            End Site
            {
              OFFSET 1 0 0
            }
          }
          JOINT rightEye
          {
            OFFSET -3.6576 8.04674 8.04672
            CHANNELS 3 Zrotation Xrotation Yrotation
            End Site
            {
              OFFSET 1 0 0
            }
          }
        }
      }
      JOINT rCollar
      {
        OFFSET -2.68224 19.2634 -4.8768
        CHANNELS 3 Zrotation Xrotation Yrotation
        JOINT rShldr
        {
          OFFSET -8.77824 -1.95073 1.46304
          CHANNELS 3 Zrotation Xrotation Yrotation
          JOINT rForeArm
          {
            OFFSET -28.1742 -1.7115 0.48768
            CHANNELS 3 Zrotation Xrotation Yrotation
            JOINT rHand
            {
              OFFSET -22.5879 0.773209 7.07136
              CHANNELS 3 Zrotation Xrotation Yrotation
              JOINT rThumb1
              {
                OFFSET -1.2192 -0.487915 3.41376
                CHANNELS 3 Zrotation Xrotation Yrotation
                JOINT rThumb2
                {
                  OFFSET -3.37035 -0.52449 3.41376
                  CHANNELS 3 Zrotation Xrotation Yrotation
                  End Site
                  {
                    OFFSET -1.78271 -1.18214 1.43049
                  }
                }
              }
              JOINT rIndex1
              {
                OFFSET -7.75947 0.938293 5.60832
                CHANNELS 3 Zrotation Xrotation Yrotation
                JOINT rIndex2
                {
                  OFFSET -2.54057 -0.884171 1.56538
                  CHANNELS 3 Zrotation Xrotation Yrotation
                  End Site
                  {
                    OFFSET -1.62519 -0.234802 1.16502
                  }
                }
              }
              JOINT rMid1
              {
                OFFSET -8.24714 1.18213 3.41376
                CHANNELS 3 Zrotation Xrotation Yrotation
                JOINT rMid2
                {
                  OFFSET -3.10165 -0.590103 1.0647
                  CHANNELS 3 Zrotation Xrotation Yrotation
                  End Site
                  {
                    OFFSET -2.48547 -0.328903 0.83742
                  }
                }
              }
              JOINT rRing1
              {
                OFFSET -8.82822 0.546677 1.51678
                CHANNELS 3 Zrotation Xrotation Yrotation
                JOINT rRing2
                {
                  OFFSET -2.60934 -0.819778 -0.0198488
                  CHANNELS 3 Zrotation Xrotation Yrotation
                  End Site
                  {
                    OFFSET -2.33842 -0.294052 0.168128
                  }
                }
              }
              JOINT rPinky1
              {
                OFFSET -8.27202 -0.0477905 -0.4584
                CHANNELS 3 Zrotation Xrotation Yrotation
                JOINT rPinky2
                {
                  OFFSET -1.82734 -0.647385 -0.700984
                  CHANNELS 3 Zrotation Xrotation Yrotation
                  End Site
                  {
                    OFFSET -1.69225 -0.51767 -0.607171
                  }
                }
              }
            }
          }
        }
      }
      JOINT lCollar
      {
        OFFSET 2.68224 19.2634 -4.8768
        CHANNELS 3 Zrotation Xrotation Yrotation
        JOINT lShldr
        {
          OFFSET 8.77824 -1.95073 1.46304
          CHANNELS 3 Zrotation Xrotation Yrotation
          JOINT lForeArm
          {
            OFFSET 28.1742 -1.7115 0.48768
            CHANNELS 3 Zrotation Xrotation Yrotation
            JOINT lHand
            {
              OFFSET 22.5879 0.773209 7.07136
              CHANNELS 3 Zrotation Xrotation Yrotation
              JOINT lThumb1
              {
                OFFSET 1.2192 -0.487915 3.41376
                CHANNELS 3 Zrotation Xrotation Yrotation
                JOINT lThumb2
                {
                  OFFSET 3.37035 -0.52449 3.41376
                  CHANNELS 3 Zrotation Xrotation Yrotation
                  End Site
                  {
                    OFFSET 1.78271 -1.18214 1.43049
                  }
                }
              }
              JOINT lIndex1
              {
                OFFSET 7.75947 0.938293 5.60832
                CHANNELS 3 Zrotation Xrotation Yrotation
                JOINT lIndex2
                {
                  OFFSET 2.54057 -0.884171 1.56538
                  CHANNELS 3 Zrotation Xrotation Yrotation
                  End Site
                  {
                    OFFSET 1.62519 -0.234802 1.16502
                  }
                }
              }
              JOINT lMid1
              {
                OFFSET 8.24714 1.18213 3.41376
                CHANNELS 3 Zrotation Xrotation Yrotation
                JOINT lMid2
                {
                  OFFSET 3.10165 -0.590103 1.0647
                  CHANNELS 3 Zrotation Xrotation Yrotation
                  End Site
                  {
                    OFFSET 2.48547 -0.328903 0.83742
                  }
                }
              }
              JOINT lRing1
              {
                OFFSET 8.82822 0.546677 1.51678
                CHANNELS 3 Zrotation Xrotation Yrotation
                JOINT lRing2
                {
                  OFFSET 2.60934 -0.819778 -0.0198488
                  CHANNELS 3 Zrotation Xrotation Yrotation
                  End Site
                  {
                    OFFSET 2.33842 -0.294052 0.168128
                  }
                }
              }
              JOINT lPinky1
              {
                OFFSET 8.27202 -0.0477905 -0.4584
                CHANNELS 3 Zrotation Xrotation Yrotation
                JOINT lPinky2
                {
                  OFFSET 1.82734 -0.647385 -0.700984
                  CHANNELS 3 Zrotation Xrotation Yrotation
                  End Site
                  {
                    OFFSET 1.69225 -0.51767 -0.607171
                  }
                }
              }
            }
          }
        }
      }
    }
  }
  JOINT rButtock
  {
    OFFSET -8.77824 4.35084 1.2192
    CHANNELS 3 Zrotation Xrotation Yrotation
    JOINT rThigh
    {
      OFFSET 0 -1.70687 -2.19456
      CHANNELS 3 Zrotation Xrotation Yrotation
      JOINT rShin
      {
        OFFSET 0 -36.8199 0.73152
        CHANNELS 3 Zrotation Xrotation Yrotation
        JOINT rFoot
        {
          OFFSET 0.73152 -45.1104 -5.12064
          CHANNELS 3 Zrotation Xrotation Yrotation
          End Site
          {
            OFFSET -1.1221 -3.69964 12.103
          }
        }
      }
    }
  }
  JOINT lButtock
  {
    OFFSET 8.77824 4.35084 1.2192
    CHANNELS 3 Zrotation Xrotation Yrotation
    JOINT lThigh
    {
      OFFSET 0 -1.70687 -2.19456
      CHANNELS 3 Zrotation Xrotation Yrotation
      JOINT lShin
      {
        OFFSET 0 -36.8199 0.73152
        CHANNELS 3 Zrotation Xrotation Yrotation
        JOINT lFoot
        {
          OFFSET -0.73152 -45.1104 -5.12064
          CHANNELS 3 Zrotation Xrotation Yrotation
          End Site
          {
            OFFSET 1.1221 -3.69964 12.103
          }
        }
      }
    }
  }
}
MOTION
Frames:	8
Frame Time:	0.00833333
0.0 0.0 0.0 0.0 0.0 0.0 0.0 0.0 0.0 0.0 0.0 0.0 0.0 0.0 0.0 0.0 0.0 0.0 0.0 0.0 0.0 0.0 0.0 0.0 0.0 0.0 0.0 0.0 0.0 0.0 0.0 0.0 0.0 0.0 0.0 0.0 0.0 0.0 0.0 0.0 0.0 0.0 0.0 0.0 0.0 0.0 0.0 0.0 0.0 0.0 0.0 0.0 0.0 0.0 0.0 0.0 0.0 0.0 0.0 0.0 0.0 0.0 0.0 0.0 0.0 0.0 0.0 0.0 0.0 0.0 0.0 0.0 0.0 0.0 0.0 0.0 0.0 0.0 0.0 0.0 0.0 0.0 0.0 0.0 0.0 0.0 0.0 0.0 0.0 0.0 0.0 0.0 0.0 0.0 0.0 0.0 0.0 0.0 0.0 0.0 0.0 0.0 0.0 0.0 0.0 0.0 0.0 0.0 0.0 0.0 0.0 0.0 0.0 0.0 0.0 0.0 0.0 0.0 0.0 0.0 0.0 0.0 0.0 0.0 0.0 0.0 0.0 0.0 0.0 0.0 0.0 0.0
82.82119999999999 83.9953 6.6907 138.674537 -84.839828 -134.483486 0.227383 -0.405005 3.265002 -0.325844 -2.080105 -3.531309 -9.191712 6.619854 -42.654144 14.853262 2.079288 42.093127 -0.001042 -0.0 0.00188 -0.00169 -0.0 0.002385 -143.620061 38.233046 148.079821 62.217028 -61.607596 58.502662 -42.916737 88.923023 4.368313 166.417358 -25.507829 142.379911 -94.791205 37.828134 54.284013 -136.598386 -21.578812 77.716104 10.335815 -18.283638 -4.603137 -7.653249 26.194316 7.94606 -142.379946 33.885168 130.259643 -7.337316 26.145765 6.392956 -72.758475 -72.143245 -89.772212 -149.714592 -28.682852 -179.639717 -153.203865 41.295393 -148.28504 -127.097434 -29.856672 -124.143478 -0.05842 -0.352836 0.078381 66.820189 -84.329271 95.638198 -80.426869 -74.791541 -35.584976 -174.68501 1.293085 -146.315412 78.030811 38.689593 -42.412444 71.750074 -0.404325 -59.018268 151.093627 -16.679923 -121.048251 79.26138 57.446888 -61.529957 160.672899 -6.668108 -143.244379 170.470302 -26.280722 -143.872441 145.120011 0.185594 179.186333 148.134581 -43.032344 170.607032 3.557736 -8.516691 3.322066 158.889909 54.041683 150.002813 -179.978176 75.749928 -0.017957 -177.717743 62.083378 36.690952 19.944197 14.371981 110.849947 -87.556951 -0.808585 -176.126139 0.005825 -0.000312 0.002912 -2.222659 -2.524706 -0.142096 -5.750988 15.596293 -147.343432 -20.725243 26.336161 152.975578
82.1202 83.97449999999999 6.485399999999999 147.181561 -84.642136 -142.87771 -0.133218 -0.823073 -9.194181 -0.777279 -4.458663 8.588916 6.350267 14.918983 98.489228 -19.035499 2.852933 -100.266059 0.003986 -0.0 -0.004001 -0.001673 0.0 -0.003536 -82.105918 68.32532 85.221551 -161.167829 -11.10825 126.504216 -95.946104 70.262299 108.53016 4.588534 -9.630614 1.743502 4.417721 -4.400269 -0.513059 -129.438529 -23.065377 115.919889 -132.817719 12.806511 111.10829 -89.404928 55.567425 67.915413 -0.57049 1.648499 0.321626 -42.063868 58.559255 36.103471 -145.099241 -1.521129 -178.650213 11.338486 13.754974 -7.374588 -146.223528 15.4706 -142.748247 1.161521 -2.662177 -2.838861 147.865354 28.559819 -152.689804 29.240902 3.679763 -40.253907 -8.108744 -10.423522 51.285696 -162.416896 -27.382912 -142.268561 174.087394 -11.753779 -89.876601 138.26484 10.954171 -70.151754 -60.460761 -70.524056 -15.708426 155.759752 -14.008006 -115.053281 162.268819 -11.677191 -143.937042 -167.267955 -63.974157 -132.411703 145.118159 0.185321 179.187054 -11.590221 58.795858 1.66283 157.327476 57.246295 150.513817 -33.260171 74.780758 -0.386751 -0.007311 -0.000974 -0.003655 1.978255 -21.370423 0.0 5.963311 19.51878 39.444752 -81.215438 38.531712 7.32127 0.000276 -0.000972 -0.000354 -4.117946 -3.567703 -49.162215 -19.130436 14.419766 -154.348958 27.807424 48.160372 -155.891876
81.3972 83.9586 6.2649 155.682275 -84.329461 -151.297387 -2.057455 -5.828497 160.518212 0.346924 1.858899 -161.42193 -3.590992 27.213651 174.412918 -18.194717 31.527827 -170.899546 0.001274 -0.0 -0.003403 -0.004316 0.0 -0.002511 -82.106276 68.324282 85.221554 -102.634906 4.884345 101.300047 0.434107 -64.813889 -59.221974 160.948346 -33.659672 140.049386 -103.200251 36.33106 60.110793 23.217388 -31.975189 24.530932 60.46245 -70.52329 15.712738 87.467063 -64.333976 30.980185 -10.97667 25.789672 7.640457 -170.996403 -28.573268 144.211232 -145.112261 -0.627154 -178.931737 -154.352668 71.873765 169.600917 -143.939831 8.264556 -140.720362 16.99897 43.781516 6.047632 0.048673 0.292512 -0.064193 98.057204 -10.970752 172.19097 -70.388174 39.886421 67.721137 169.184834 53.213435 -145.669967 89.135807 38.426919 -50.299372 -29.167939 -31.257224 -22.075181 77.667919 43.030785 -64.538146 -94.611135 -65.44982 -46.370413 -0.0475 -0.138601 0.026752 13.370713 36.411689 -10.632691 67.609291 -72.073854 84.374477 57.68568 -82.384354 83.586367 156.380825 53.734263 150.118465 150.680206 19.139154 143.579317 -179.997634 75.748656 -0.001619 -177.715327 47.284849 -1.648245 7.123206 25.237678 32.28954 71.999711 -68.184845 -16.112813 -179.999852 75.750375 0.0 161.397147 69.034789 -117.970371 -12.798061 -26.970151 8.554383 78.122347 -17.506288 150.186387
80.7052 83.9421 6.0237 163.248108 -83.931332 -158.755982 0.647801 -3.411444 -75.674154 4.617989 -5.652559 75.124016 -3.348551 10.649416 40.213113 -1.688623 -23.289056 -45.606308 -0.000996 0.0 -0.002406 -0.000996 0.0 -0.002406 -157.797031 -22.115356 165.467719 118.626342 -21.042131 -166.876719 172.813292 64.197356 127.329678 164.833239 -24.422011 142.970393 -14.735531 13.585634 3.966821 -37.208436 20.915562 38.803644 -138.76523 4.48839 115.032258 -177.524691 -39.848397 115.576082 -160.098042 -4.900865 142.970053 168.19738 -63.237548 133.116782 -0.014021 -1.323345 -0.414636 7.022052 29.716109 4.671096 -10.236738 -20.961625 -9.694413 23.653395 67.339177 8.80312 -2.784394 -21.387992 4.257371 -94.406673 17.632264 33.009997 -4.026421 -31.251169 -33.724779 8.617198 43.594681 -4.222379 7.351238 7.062278 -1.57007 122.087792 -17.081563 -107.952323 -12.217795 -21.784382 5.119945 2.12349 21.060282 -4.891458 160.098347 -4.900972 -142.969475 -80.985221 -77.630154 -52.532127 145.112493 -0.627193 178.931815 54.766059 87.580858 -68.030073 -5.949677 17.838241 -5.333959 23.091 -40.108775 23.503901 -0.000868 0.000591 -0.0 1.585588 -35.501186 -180.0 -0.837475 -43.51787 37.431548 58.364778 -30.03505 153.304908 -179.997632 75.75071 -0.0 154.717508 69.810364 -0.0 -9.534121 22.188455 79.468178 103.65642 -49.040663 15.740527
80.04520000000001 83.9259 5.7716 169.298973 -83.487272 -164.672085 0.512798 -3.293436 -61.056815 4.208054 -6.848322 60.407767 -18.873818 16.169764 -55.010094 37.225421 10.320424 47.91643 0.000574 0.0 0.002997 0.004556 -0.0 -0.003724 -0.272412 1.606927 0.36043 100.242065 20.015039 -3.511498 -29.617811 -2.089517 14.65499 7.976758 -15.690621 3.840784 -171.706231 -9.388432 89.948375 -77.807963 5.732581 25.835722 -129.578672 16.761749 108.785595 -162.478778 -10.57656 118.046516 -6.508916 16.801423 4.226256 -165.632806 -12.271551 143.974013 -72.96509 -72.142818 -89.990263 -150.975147 -0.360299 176.405703 44.748659 86.377362 -5.382659 -4.043894 -12.662434 -5.638494 33.833813 -85.665988 55.251024 -102.387444 14.145289 101.296584 -169.976187 19.778265 -114.619756 -159.864644 -26.980075 -143.526911 78.493404 38.702189 -42.741235 -34.285388 -32.038636 -19.531366 46.209452 39.652796 -36.317851 -4.117273 3.972861 1.90079 -173.125086 -66.297994 -137.615142 34.826602 54.960578 -29.314563 145.122106 1.973791 179.748178 -11.053392 13.767296 7.371048 159.758096 65.344914 151.08974 171.226983 70.871641 144.173073 179.989865 75.749782 0.006934 -177.717315 38.590717 -165.882423 -21.366716 -30.034523 -146.746235 -61.529592 57.132849 -23.146839 179.989865 75.749782 0.006934 153.365217 67.398062 -180.0 11.377094 -24.49884 -108.66522 -79.364691 2.095601 -24.495863
79.3842 83.906 5.5371 173.858633 -82.962733 -169.019684 -1.138408 -7.299149 -180.0 1.421504 3.411646 178.804239 -18.74338 15.85035 -54.020014 36.360782 9.7582 47.763949 -0.001987 0.0 -0.004306 -0.001987 0.0 -0.004306 -143.619511 38.232847 148.079451 -50.095234 -31.739217 57.779633 -175.189856 -3.872914 -152.37163 -6.938467 29.993802 1.888962 -0.441774 0.435255 0.068711 -1.255328 1.630469 1.336114 15.040256 -27.003995 -5.677116 4.996638 13.36444 1.474823 68.983707 -80.154105 40.578676 179.928615 -48.681872 141.196728 -145.120616 0.184545 -179.188314 -145.059955 -50.809826 -167.344751 -126.798849 -26.619354 -124.511989 -84.570915 -52.254272 -84.692457 153.589608 -75.693305 178.25947 67.272598 -1.82303 61.906902 -149.562111 51.343074 120.410093 28.862278 69.4661 -18.157249 177.747672 -15.324148 -89.569888 40.374727 -21.464577 -2.692504 -37.214499 -57.918232 0.643868 61.882968 51.910005 -51.18641 160.097446 -4.901621 -142.967677 166.603492 -14.845919 -143.725436 -0.005285 1.773098 -0.558135 -9.091196 12.714221 -1.65982 157.046302 56.20625 150.400945 147.249875 8.678424 141.27559 -0.003579 -0.001125 -0.003579 2.166893 -34.360324 14.036418 7.980673 33.394186 -72.53222 107.613738 19.16794 -8.754838 -179.991677 75.749764 -0.008588 153.586267 70.103783 -0.0 -10.645517 25.2817 94.183504 -120.742076 30.620991 1.148225
78.6732 83.8904 5.299 177.424596 -82.491646 -172.414572 0.178829 -7.649569 -161.308718 2.500183 2.601327 160.199882 -18.541331 23.372322 -100.847791 26.013715 33.07865 92.944922 0.004013 -0.0 -0.000231 -0.002151 -0.0 0.002352 1.990366 -14.052854 -2.881626 -125.431045 66.478799 -137.619175 178.456995 -49.051843 -156.957391 -8.873697 34.810131 2.467214 -0.492652 0.484217 0.077698 -26.969581 22.132131 24.081527 19.568601 -35.040296 -5.986503 -19.930182 37.775142 16.510319 68.985643 -80.153432 40.581055 -7.587649 26.125067 6.222364 -145.121558 1.97485 -179.748026 -149.561214 -38.770375 -171.998268 1.297593 3.491711 1.192825 2.436182 0.057246 0.031557 14.148474 43.06147 -15.996863 -81.084074 22.593755 -39.409634 -0.510652 -48.052262 -32.046465 7.305237 40.051304 -3.707246 169.571722 -7.253917 -89.930284 -45.814219 -66.322122 -36.21024 166.822663 -43.973649 -122.061257 -1.300628 22.610873 3.835453 0.337859 0.982271 -0.188947 163.729985 -6.174149 -143.492873 114.669133 66.731787 -135.092752 158.860162 -16.920881 -179.762416 -32.035011 83.319426 -6.212777 44.54296 -50.090223 43.914607 -8.9e-05 -0.000173 -4.5e-05 3.177578 -32.87498 5.83967 2.344959 32.487191 -56.060145 -91.105586 -50.095183 7.938227 0.011363 -0.001281 0.008522 -8.613391 -3.122993 -0.644976 -0.506308 33.929188 143.295339 -107.841842 -44.16127 -176.691259
